<svg id="bird" xmlns="http://www.w3.org/2000/svg" viewBox="0 0 452.6 409">
  <title>bird</title>
  <g>
    <rect x="132.25" y="265.27" width="319.85" height="143.23" rx="11.5" ry="11.5"/>
    <path d="M463,311.77a11,11,0,0,1,11,11V443a11,11,0,0,1-11,11H166.15a11,11,0,0,1-11-11V322.77a11,11,0,0,1,11-11H463m0-1H166.15a12,12,0,0,0-12,12V443a12,12,0,0,0,12,12H463a12,12,0,0,0,12-12V322.77a12,12,0,0,0-12-12Z" transform="translate(-22.4 -46)"/>
  </g>
  <g>
    <rect x="132.25" y="205" width="120.12" height="114.17" rx="11.5" ry="11.5"/>
    <path d="M263.26,251.5a11,11,0,0,1,11,11v91.17a11,11,0,0,1-11,11H166.15a11,11,0,0,1-11-11V262.5a11,11,0,0,1,11-11h97.12m0-1H166.15a12,12,0,0,0-12,12v91.17a12,12,0,0,0,12,12h97.12a12,12,0,0,0,12-12V262.5a12,12,0,0,0-12-12Z" transform="translate(-22.4 -46)"/>
  </g>
  <g>
    <rect x="331.99" y="184.55" width="120.12" height="114.17" rx="11.5" ry="11.5"/>
    <path d="M463,231a11,11,0,0,1,11,11v91.17a11,11,0,0,1-11,11H365.88a11,11,0,0,1-11-11V242a11,11,0,0,1,11-11H463m0-1H365.88a12,12,0,0,0-12,12v91.17a12,12,0,0,0,12,12H463a12,12,0,0,0,12-12V242a12,12,0,0,0-12-12Z" transform="translate(-22.4 -46)"/>
  </g>
  <polyline points="137.77 148.42 1.6 85.57 85.54 196.43 13.29 280.38 131.75 262.08" stroke="#000" stroke-miterlimit="10"/>
  <g>
    <path d="M314.57,453.42c-88.18,0-159.93-91.27-159.93-203.46S226.39,46.5,314.57,46.5,474.5,137.77,474.5,250,402.76,453.42,314.57,453.42ZM283.76,131.07c-20.49,0-37.15,19.05-37.15,42.48S263.28,216,283.76,216s37.15-19.05,37.15-42.48S304.25,131.07,283.76,131.07Z" transform="translate(-22.4 -46)"/>
    <path d="M314.57,47a129.67,129.67,0,0,1,62,15.91c19,10.21,36,24.83,50.68,43.45C457.39,144.71,474,195.7,474,250s-16.61,105.26-46.77,143.6c-14.65,18.62-31.7,33.24-50.68,43.45a128.66,128.66,0,0,1-123.94,0c-19-10.21-36-24.83-50.68-43.45-30.16-38.35-46.77-89.35-46.77-143.6s16.61-105.26,46.77-143.6c14.65-18.62,31.7-33.24,50.68-43.45a129.67,129.67,0,0,1,62-15.91M283.76,216.52c20.76,0,37.65-19.28,37.65-43s-16.89-43-37.65-43-37.65,19.28-37.65,43,16.89,43,37.65,43M314.57,46C226,46,154.15,137.32,154.15,250s71.83,204,160.43,204S475,362.61,475,250,403.17,46,314.57,46ZM283.76,215.52c-20.24,0-36.65-18.79-36.65-42s16.41-42,36.65-42,36.65,18.79,36.65,42-16.41,42-36.65,42Z" transform="translate(-22.4 -46)"/>
  </g>
</svg>
