<svg id="dog" xmlns="http://www.w3.org/2000/svg" viewBox="0 0 493.83 415">
  <title>dog</title>
  <g>
    <path d="M26.6,412.06a13.49,13.49,0,0,1-3.84-.55c-23-6.82-23.2-74.73-.46-151.38,21.16-71.32,55.91-127.19,79.1-127.19a13.49,13.49,0,0,1,3.84.55c23,6.82,23.2,74.73.46,151.38C84.54,356.19,49.8,412.06,26.6,412.06Z" transform="translate(-4.91 -80)"/>
    <path d="M101.4,133.44a13,13,0,0,1,3.7.53c10.65,3.16,16.84,20.93,17,48.75.15,28.61-5.84,64.84-16.87,102-10.38,35-24.23,67.23-39,90.82-14.54,23.22-28.61,36-39.62,36a13,13,0,0,1-3.7-.53c-10.65-3.16-16.84-20.93-17-48.75-.15-28.61,5.84-64.84,16.87-102,10.38-35,24.23-67.23,39-90.82,14.54-23.22,28.61-36,39.62-36m0-1c-23.4,0-58,54.76-79.58,127.54C-1,337-.68,405.08,22.61,412a14,14,0,0,0,4,.57c23.4,0,58-54.76,79.58-127.54,22.86-77,22.5-145.09-.8-152a14,14,0,0,0-4-.57Z" transform="translate(-4.91 -80)"/>
  </g>
  <g>
    <path d="M475.46,411.43c-23.26,0-56-57.19-74.62-130.2-9.57-37.62-14.15-74.1-12.87-102.74,1.27-28.44,8.11-45.67,19.26-48.51a13.4,13.4,0,0,1,3.3-.41c23.26,0,56,57.19,74.62,130.2,9.57,37.62,14.15,74.1,12.87,102.74-1.27,28.44-8.11,45.67-19.26,48.51A13.42,13.42,0,0,1,475.46,411.43Z" transform="translate(-4.91 -80)"/>
    <path d="M410.54,129.07v1c23,0,55.6,57,74.13,129.82,9.56,37.57,14.13,74,12.86,102.59-1.24,27.8-8.12,45.31-18.89,48a12.9,12.9,0,0,1-3.18.39c-23,0-55.61-57-74.13-129.82-9.56-37.57-14.13-74-12.86-102.59,1.24-27.8,8.12-45.31,18.89-48a12.91,12.91,0,0,1,3.18-.39v-1m0,0a13.86,13.86,0,0,0-3.43.42c-23.55,6-26.57,74-6.75,151.86,18.88,74.19,51.68,130.58,75.1,130.58a13.85,13.85,0,0,0,3.43-.42c23.55-6,26.57-74,6.75-151.86-18.88-74.19-51.68-130.58-75.1-130.58Z" transform="translate(-4.91 -80)"/>
  </g>
  <g>
    <path d="M259.5,464.5c-102,0-185-86.13-185-192s83-192,185-192,185,86.13,185,192S361.51,464.5,259.5,464.5Zm76-246c-17.09,0-31,14.13-31,31.5s13.91,31.5,31,31.5,31-14.13,31-31.5S352.59,218.5,335.5,218.5Zm-152,0c-17.09,0-31,14.13-31,31.5s13.91,31.5,31,31.5,31-14.13,31-31.5S200.59,218.5,183.5,218.5Z" transform="translate(-4.91 -80)"/>
    <path d="M259.5,81a177.57,177.57,0,0,1,71.8,15,183.67,183.67,0,0,1,58.65,41,191.42,191.42,0,0,1,39.55,60.87,198.86,198.86,0,0,1,0,149.1,191.42,191.42,0,0,1-39.55,60.87,183.67,183.67,0,0,1-58.65,41,178.88,178.88,0,0,1-143.61,0,183.67,183.67,0,0,1-58.65-41A191.42,191.42,0,0,1,89.5,347.05a198.86,198.86,0,0,1,0-149.1,191.42,191.42,0,0,1,39.55-60.87A183.67,183.67,0,0,1,187.7,96a177.57,177.57,0,0,1,71.8-15m76,201c17.37,0,31.5-14.36,31.5-32s-14.13-32-31.5-32S304,232.36,304,250s14.13,32,31.5,32m-152,0c17.37,0,31.5-14.36,31.5-32s-14.13-32-31.5-32S152,232.36,152,250s14.13,32,31.5,32m76-202C157.05,80,74,166.19,74,272.5S157.05,465,259.5,465,445,378.81,445,272.5,361.95,80,259.5,80Zm76,201c-16.84,0-30.5-13.88-30.5-31s13.66-31,30.5-31S366,232.88,366,250s-13.66,31-30.5,31Zm-152,0c-16.84,0-30.5-13.88-30.5-31s13.66-31,30.5-31S214,232.88,214,250s-13.66,31-30.5,31Z" transform="translate(-4.91 -80)"/>
  </g>
  <g>
    <path d="M260,494.5c-20.68,0-37.5-9-37.5-20s16.82-20,37.5-20,37.5,9,37.5,20S280.68,494.5,260,494.5Z" transform="translate(-4.91 -80)"/>
    <path d="M260,455c20.4,0,37,8.75,37,19.5S280.4,494,260,494s-37-8.75-37-19.5S239.6,455,260,455m0-1c-21,0-38,9.18-38,20.5S239,495,260,495s38-9.18,38-20.5S281,454,260,454Z" transform="translate(-4.91 -80)"/>
  </g>
</svg>
