<svg id="fish" xmlns="http://www.w3.org/2000/svg" viewBox="0 0 445.54 459.09">
  <title>fish</title>
  <polyline points="296.88 266.05 444.28 266.61 240.28 457.94 240.28 319.76" stroke="#000" stroke-miterlimit="10"/>
  <g>
    <path d="M298.75,387.44c-52.09,0-119.94-40.27-172.86-102.59-74.42-87.64-97-191.16-50.34-230.78,12.12-10.29,27.83-15.51,46.7-15.51,52.09,0,119.94,40.27,172.87,102.59,36.08,42.49,61.17,89.93,70.66,133.57s2.24,78.05-20.31,97.21c-12.12,10.29-27.83,15.51-46.7,15.51ZM159,70a28,28,0,1,0,28,28A28,28,0,0,0,159,70Z" transform="translate(-50.72 -38.06)"/>
    <path d="M122.25,39.06c25.1,0,54.34,9.35,84.57,27,31.07,18.18,61.47,44.25,87.91,75.38,36,42.43,61.08,89.79,70.55,133.35,4.59,21.12,5.25,40.19,2,56.67-3.38,17-10.82,30.45-22.12,40-12,10.21-27.63,15.39-46.38,15.39-25.1,0-54.34-9.35-84.57-27-31.07-18.18-61.47-44.25-87.91-75.38C52,197.1,29.42,93.89,75.87,54.45c12-10.21,27.63-15.39,46.38-15.39M159,126.5A28.5,28.5,0,1,0,130.5,98,28.53,28.53,0,0,0,159,126.5M122.25,38.06c-18.39,0-34.53,5-47,15.63C28.28,93.55,50.8,197.18,125.51,285.17,180.34,349.74,248,387.94,298.75,387.94c18.39,0,34.53-5,47-15.63,46.94-39.86,24.43-143.5-50.29-231.48C240.66,76.26,173,38.06,122.25,38.06ZM159,125.5A27.5,27.5,0,1,1,186.5,98,27.5,27.5,0,0,1,159,125.5Z" transform="translate(-50.72 -38.06)"/>
  </g>
</svg>
