<svg id="mouse" xmlns="http://www.w3.org/2000/svg" viewBox="0 0 406 437">
  <title>mouse</title>
  <circle cx="79.5" cy="79.5" r="79" stroke="#000" stroke-miterlimit="10"/>
  <circle cx="326.5" cy="79.5" r="79" stroke="#000" stroke-miterlimit="10"/>
  <ellipse cx="208" cy="404" rx="44.5" ry="32.5" stroke="#000" stroke-miterlimit="10"/>
  <path d="M247,96.5c-77,0-139.5,77.23-139.5,172.5S170,441.5,247,441.5,386.5,364.27,386.5,269,324,96.5,247,96.5Zm-63.5,166a30,30,0,1,1,30-30A30,30,0,0,1,183.5,262.5Zm120,0a30,30,0,1,1,30-30A30,30,0,0,1,303.5,262.5Z" transform="translate(-45 -44)" stroke="#000" stroke-miterlimit="10"/>
</svg>
