<svg xmlns="http://www.w3.org/2000/svg">
	<symbol id="dog" viewBox="0 0 493.83 415">
		<title>dog</title>
		<g>
		<path d="M26.6,412.06a13.49,13.49,0,0,1-3.84-.55c-23-6.82-23.2-74.73-.46-151.38,21.16-71.32,55.91-127.19,79.1-127.19a13.49,13.49,0,0,1,3.84.55c23,6.82,23.2,74.73.46,151.38C84.54,356.19,49.8,412.06,26.6,412.06Z" transform="translate(-4.91 -80)"/>
		<path d="M101.4,133.44a13,13,0,0,1,3.7.53c10.65,3.16,16.84,20.93,17,48.75.15,28.61-5.84,64.84-16.87,102-10.38,35-24.23,67.23-39,90.82-14.54,23.22-28.61,36-39.62,36a13,13,0,0,1-3.7-.53c-10.65-3.16-16.84-20.93-17-48.75-.15-28.61,5.84-64.84,16.87-102,10.38-35,24.23-67.23,39-90.82,14.54-23.22,28.61-36,39.62-36m0-1c-23.4,0-58,54.76-79.58,127.54C-1,337-.68,405.08,22.61,412a14,14,0,0,0,4,.57c23.4,0,58-54.76,79.58-127.54,22.86-77,22.5-145.09-.8-152a14,14,0,0,0-4-.57Z" transform="translate(-4.91 -80)"/>
		</g>
		<g>
		<path d="M475.46,411.43c-23.26,0-56-57.19-74.62-130.2-9.57-37.62-14.15-74.1-12.87-102.74,1.27-28.44,8.11-45.67,19.26-48.51a13.4,13.4,0,0,1,3.3-.41c23.26,0,56,57.19,74.62,130.2,9.57,37.62,14.15,74.1,12.87,102.74-1.27,28.44-8.11,45.67-19.26,48.51A13.42,13.42,0,0,1,475.46,411.43Z" transform="translate(-4.91 -80)"/>
		<path d="M410.54,129.07v1c23,0,55.6,57,74.13,129.82,9.56,37.57,14.13,74,12.86,102.59-1.24,27.8-8.12,45.31-18.89,48a12.9,12.9,0,0,1-3.18.39c-23,0-55.61-57-74.13-129.82-9.56-37.57-14.13-74-12.86-102.59,1.24-27.8,8.12-45.31,18.89-48a12.91,12.91,0,0,1,3.18-.39v-1m0,0a13.86,13.86,0,0,0-3.43.42c-23.55,6-26.57,74-6.75,151.86,18.88,74.19,51.68,130.58,75.1,130.58a13.85,13.85,0,0,0,3.43-.42c23.55-6,26.57-74,6.75-151.86-18.88-74.19-51.68-130.58-75.1-130.58Z" transform="translate(-4.91 -80)"/>
		</g>
		<g>
		<path d="M259.5,464.5c-102,0-185-86.13-185-192s83-192,185-192,185,86.13,185,192S361.51,464.5,259.5,464.5Zm76-246c-17.09,0-31,14.13-31,31.5s13.91,31.5,31,31.5,31-14.13,31-31.5S352.59,218.5,335.5,218.5Zm-152,0c-17.09,0-31,14.13-31,31.5s13.91,31.5,31,31.5,31-14.13,31-31.5S200.59,218.5,183.5,218.5Z" transform="translate(-4.91 -80)"/>
		<path d="M259.5,81a177.57,177.57,0,0,1,71.8,15,183.67,183.67,0,0,1,58.65,41,191.42,191.42,0,0,1,39.55,60.87,198.86,198.86,0,0,1,0,149.1,191.42,191.42,0,0,1-39.55,60.87,183.67,183.67,0,0,1-58.65,41,178.88,178.88,0,0,1-143.61,0,183.67,183.67,0,0,1-58.65-41A191.42,191.42,0,0,1,89.5,347.05a198.86,198.86,0,0,1,0-149.1,191.42,191.42,0,0,1,39.55-60.87A183.67,183.67,0,0,1,187.7,96a177.57,177.57,0,0,1,71.8-15m76,201c17.37,0,31.5-14.36,31.5-32s-14.13-32-31.5-32S304,232.36,304,250s14.13,32,31.5,32m-152,0c17.37,0,31.5-14.36,31.5-32s-14.13-32-31.5-32S152,232.36,152,250s14.13,32,31.5,32m76-202C157.05,80,74,166.19,74,272.5S157.05,465,259.5,465,445,378.81,445,272.5,361.95,80,259.5,80Zm76,201c-16.84,0-30.5-13.88-30.5-31s13.66-31,30.5-31S366,232.88,366,250s-13.66,31-30.5,31Zm-152,0c-16.84,0-30.5-13.88-30.5-31s13.66-31,30.5-31S214,232.88,214,250s-13.66,31-30.5,31Z" transform="translate(-4.91 -80)"/>
		</g>
		<g>
		<path d="M260,494.5c-20.68,0-37.5-9-37.5-20s16.82-20,37.5-20,37.5,9,37.5,20S280.68,494.5,260,494.5Z" transform="translate(-4.91 -80)"/>
		<path d="M260,455c20.4,0,37,8.75,37,19.5S280.4,494,260,494s-37-8.75-37-19.5S239.6,455,260,455m0-1c-21,0-38,9.18-38,20.5S239,495,260,495s38-9.18,38-20.5S281,454,260,454Z" transform="translate(-4.91 -80)"/>
		</g>
	</symbol>
	<symbol id="cat" viewBox="0 0 492.3 430.12">
		<title>cat</title>
		<line x1="74.61" y1="275.12" x2="2.61" y2="231.12" fill="none" stroke="#000" stroke-miterlimit="10" stroke-width="10"/>
		<line x1="94.61" y1="321.12" x2="16.61" y2="370.12" fill="none" stroke="#000" stroke-miterlimit="10" stroke-width="10"/>
		<line x1="428.61" y1="274.12" x2="489.61" y2="235.12" fill="none" stroke="#000" stroke-miterlimit="10" stroke-width="10"/>
		<line x1="417.61" y1="320.12" x2="482.61" y2="371.12" fill="none" stroke="#000" stroke-miterlimit="10" stroke-width="10"/>
		<polygon points="59.9 6.5 79.98 144.08 189.08 57.9 59.9 6.5"/>
		<polygon points="411.51 0 289.41 66.49 408.04 138.99 411.51 0"/>
		<path d="M250.5,95C143.08,95,56,182.08,56,289.5S143.08,484,250.5,484,445,396.92,445,289.5,357.92,95,250.5,95Zm-90,182A32.5,32.5,0,1,1,193,244.5,32.5,32.5,0,0,1,160.5,277Zm164,0A32.5,32.5,0,1,1,357,244.5,32.5,32.5,0,0,1,324.5,277Z" transform="translate(-6.39 -53.88)"/>
	</symbol>
	<symbol id="fish" viewBox="0 0 445.54 459.09">
		<title>fish</title>
		<polyline points="296.88 266.05 444.28 266.61 240.28 457.94 240.28 319.76" stroke="#000" stroke-miterlimit="10"/>
		<g>
		<path d="M298.75,387.44c-52.09,0-119.94-40.27-172.86-102.59-74.42-87.64-97-191.16-50.34-230.78,12.12-10.29,27.83-15.51,46.7-15.51,52.09,0,119.94,40.27,172.87,102.59,36.08,42.49,61.17,89.93,70.66,133.57s2.24,78.05-20.31,97.21c-12.12,10.29-27.83,15.51-46.7,15.51ZM159,70a28,28,0,1,0,28,28A28,28,0,0,0,159,70Z" transform="translate(-50.72 -38.06)"/>
		<path d="M122.25,39.06c25.1,0,54.34,9.35,84.57,27,31.07,18.18,61.47,44.25,87.91,75.38,36,42.43,61.08,89.79,70.55,133.35,4.59,21.12,5.25,40.19,2,56.67-3.38,17-10.82,30.45-22.12,40-12,10.21-27.63,15.39-46.38,15.39-25.1,0-54.34-9.35-84.57-27-31.07-18.18-61.47-44.25-87.91-75.38C52,197.1,29.42,93.89,75.87,54.45c12-10.21,27.63-15.39,46.38-15.39M159,126.5A28.5,28.5,0,1,0,130.5,98,28.53,28.53,0,0,0,159,126.5M122.25,38.06c-18.39,0-34.53,5-47,15.63C28.28,93.55,50.8,197.18,125.51,285.17,180.34,349.74,248,387.94,298.75,387.94c18.39,0,34.53-5,47-15.63,46.94-39.86,24.43-143.5-50.29-231.48C240.66,76.26,173,38.06,122.25,38.06ZM159,125.5A27.5,27.5,0,1,1,186.5,98,27.5,27.5,0,0,1,159,125.5Z" transform="translate(-50.72 -38.06)"/>
		</g>
	</symbol>
	<symbol id="mouse" viewBox="0 0 406 437">
		<title>mouse</title>
		<circle cx="79.5" cy="79.5" r="79" stroke="#000" stroke-miterlimit="10"/>
		<circle cx="326.5" cy="79.5" r="79" stroke="#000" stroke-miterlimit="10"/>
		<ellipse cx="208" cy="404" rx="44.5" ry="32.5" stroke="#000" stroke-miterlimit="10"/>
		<path d="M247,96.5c-77,0-139.5,77.23-139.5,172.5S170,441.5,247,441.5,386.5,364.27,386.5,269,324,96.5,247,96.5Zm-63.5,166a30,30,0,1,1,30-30A30,30,0,0,1,183.5,262.5Zm120,0a30,30,0,1,1,30-30A30,30,0,0,1,303.5,262.5Z" transform="translate(-45 -44)" stroke="#000" stroke-miterlimit="10"/>
	</symbol>
	<symbol id="rabbit" viewBox="0 0 451.51 429">
		<title>rabbit</title>
		<g>
		<rect x="115.83" y="28.5" width="47" height="157"/>
		<path d="M191,75V231H145V75h46m1-1H144V232h48V74Z" transform="translate(-28.67 -46)"/>
		</g>
		<g>
		<rect x="279.83" y="28.5" width="47" height="157"/>
		<path d="M355,75V231H309V75h46m1-1H308V232h48V74Z" transform="translate(-28.67 -46)"/>
		</g>
		<g>
		<path d="M168,93.5A23.5,23.5,0,1,1,191.5,70,23.53,23.53,0,0,1,168,93.5Z" transform="translate(-28.67 -46)"/>
		<path d="M168,47a23,23,0,1,1-23,23,23,23,0,0,1,23-23m0-1a24,24,0,1,0,24,24,24,24,0,0,0-24-24Z" transform="translate(-28.67 -46)"/>
		</g>
		<g>
		<path d="M332,93.5A23.5,23.5,0,1,1,355.5,70,23.53,23.53,0,0,1,332,93.5Z" transform="translate(-28.67 -46)"/>
		<path d="M332,47a23,23,0,1,1-23,23,23,23,0,0,1,23-23m0-1a24,24,0,1,0,24,24,24,24,0,0,0-24-24Z" transform="translate(-28.67 -46)"/>
		</g>
		<line x1="76.33" y1="308" x2="2.33" y2="269" fill="none" stroke="#000" stroke-miterlimit="10" stroke-width="10"/>
		<line x1="104.33" y1="370" x2="41.33" y2="411" fill="none" stroke="#000" stroke-miterlimit="10" stroke-width="10"/>
		<line x1="380.33" y1="299" x2="448.33" y2="243" fill="none" stroke="#000" stroke-miterlimit="10" stroke-width="10"/>
		<line x1="327.33" y1="334" x2="419.33" y2="390" fill="none" stroke="#000" stroke-miterlimit="10" stroke-width="10"/>
		<g>
		<path d="M255,474.5c-87.95,0-159.5-63-159.5-140.5S167.05,193.5,255,193.5s159.5,63,159.5,140.5S342.95,474.5,255,474.5Zm53.5-202a25,25,0,1,0,25,25A25,25,0,0,0,308.5,272.5Zm-112,0a25,25,0,1,0,25,25A25,25,0,0,0,196.5,272.5Z" transform="translate(-28.67 -46)"/>
		<path d="M255,194c42.49,0,82.44,14.58,112.48,41S414,296.63,414,334s-16.52,72.51-46.52,99-70,41-112.48,41-82.44-14.58-112.48-41S96,371.37,96,334s16.52-72.51,46.52-99,70-41,112.48-41m53.5,129A25.5,25.5,0,1,0,283,297.5,25.53,25.53,0,0,0,308.5,323m-112,0A25.5,25.5,0,1,0,171,297.5,25.53,25.53,0,0,0,196.5,323M255,193c-88.37,0-160,63.13-160,141s71.63,141,160,141,160-63.13,160-141S343.37,193,255,193Zm53.5,129A24.5,24.5,0,1,1,333,297.5,24.5,24.5,0,0,1,308.5,322Zm-112,0A24.5,24.5,0,1,1,221,297.5,24.5,24.5,0,0,1,196.5,322Z" transform="translate(-28.67 -46)"/>
		</g>
	</symbol>
	<symbol id="tortoise" viewBox="0 0 453 240">
		<title>tortoise</title>
		<g>
		<path d="M105.81,373.5c-.21-3.68-.31-7.14-.31-10.56,0-101.15,83-183.44,185-183.44s185,82.29,185,183.44c0,3.38-.11,6.94-.32,10.56Z" transform="translate(-23 -179)"/>
		<path d="M290.5,180A184.71,184.71,0,0,1,421,233.58a181.59,181.59,0,0,1,54,129.35c0,3.27-.09,6.57-.29,10.06H106.29c-.19-3.49-.29-6.79-.29-10.06a181.59,181.59,0,0,1,54-129.35A184.71,184.71,0,0,1,290.5,180m0-1C188.05,179,105,261.35,105,362.94c0,3.72.12,7.4.34,11.06H475.66c.22-3.66.34-7.35.34-11.06C476,261.35,392.95,179,290.5,179Z" transform="translate(-23 -179)"/>
		</g>
		<g>
		<path d="M295.42,394h-4.77c-40.45-.19-78.46-2.73-107-7.16-27.91-4.33-43.91-10.09-43.88-15.81a3,3,0,0,1,.14-.87l301.78,1.4a3,3,0,0,1,.13.87C441.72,384.27,376.06,394,295.42,394Z" transform="translate(-23 -179)"/>
		<path d="M140.26,370.6l301,1.4a2.29,2.29,0,0,1,0,.37c0,2-3.07,8.84-42,14.68-27.53,4.13-64.4,6.4-103.82,6.4h-4.76c-40.43-.19-78.41-2.73-107-7.16C143.33,380,140.22,373,140.23,371a2.29,2.29,0,0,1,0-.37m-.75-1a3.72,3.72,0,0,0-.29,1.37c-.06,12.58,67.73,23.09,151.42,23.48h4.77c81.48,0,146.8-9.74,146.86-22.08A3.72,3.72,0,0,0,442,371l-302.49-1.41Z" transform="translate(-23 -179)"/>
		</g>
		<g>
		<rect x="93.5" y="182.5" width="44" height="57" rx="11.5" ry="11.5"/>
		<path d="M149,362a11,11,0,0,1,11,11v34a11,11,0,0,1-11,11H128a11,11,0,0,1-11-11V373a11,11,0,0,1,11-11h21m0-1H128a12,12,0,0,0-12,12v34a12,12,0,0,0,12,12h21a12,12,0,0,0,12-12V373a12,12,0,0,0-12-12Z" transform="translate(-23 -179)"/>
		</g>
		<g>
		<rect x="390.5" y="182.5" width="45" height="57" rx="11.5" ry="11.5"/>
		<path d="M447,362a11,11,0,0,1,11,11v34a11,11,0,0,1-11,11H425a11,11,0,0,1-11-11V373a11,11,0,0,1,11-11h22m0-1H425a12,12,0,0,0-12,12v34a12,12,0,0,0,12,12h22a12,12,0,0,0,12-12V373a12,12,0,0,0-12-12Z" transform="translate(-23 -179)"/>
		</g>
		<g>
		<path d="M81,392.5c-31.71,0-57.5-13.91-57.5-31s25.79-31,57.5-31,57.5,13.91,57.5,31S112.71,392.5,81,392.5Zm-21-45A11.5,11.5,0,1,0,71.5,359,11.51,11.51,0,0,0,60,347.5Z" transform="translate(-23 -179)"/>
		<path d="M81,331c31.43,0,57,13.68,57,30.5S112.43,392,81,392s-57-13.68-57-30.5S49.57,331,81,331M60,371a12,12,0,1,0-12-12,12,12,0,0,0,12,12m21-41c-32,0-58,14.1-58,31.5S49,393,81,393s58-14.1,58-31.5S113,330,81,330ZM60,370a11,11,0,1,1,11-11,11,11,0,0,1-11,11Z" transform="translate(-23 -179)"/>
		</g>
	</symbol>
	<symbol id="bird" viewBox="0 0 452.6 409">
		<title>bird</title>
		<g>
		<rect x="132.25" y="265.27" width="319.85" height="143.23" rx="11.5" ry="11.5"/>
		<path d="M463,311.77a11,11,0,0,1,11,11V443a11,11,0,0,1-11,11H166.15a11,11,0,0,1-11-11V322.77a11,11,0,0,1,11-11H463m0-1H166.15a12,12,0,0,0-12,12V443a12,12,0,0,0,12,12H463a12,12,0,0,0,12-12V322.77a12,12,0,0,0-12-12Z" transform="translate(-22.4 -46)"/>
		</g>
		<g>
		<rect x="132.25" y="205" width="120.12" height="114.17" rx="11.5" ry="11.5"/>
		<path d="M263.26,251.5a11,11,0,0,1,11,11v91.17a11,11,0,0,1-11,11H166.15a11,11,0,0,1-11-11V262.5a11,11,0,0,1,11-11h97.12m0-1H166.15a12,12,0,0,0-12,12v91.17a12,12,0,0,0,12,12h97.12a12,12,0,0,0,12-12V262.5a12,12,0,0,0-12-12Z" transform="translate(-22.4 -46)"/>
		</g>
		<g>
		<rect x="331.99" y="184.55" width="120.12" height="114.17" rx="11.5" ry="11.5"/>
		<path d="M463,231a11,11,0,0,1,11,11v91.17a11,11,0,0,1-11,11H365.88a11,11,0,0,1-11-11V242a11,11,0,0,1,11-11H463m0-1H365.88a12,12,0,0,0-12,12v91.17a12,12,0,0,0,12,12H463a12,12,0,0,0,12-12V242a12,12,0,0,0-12-12Z" transform="translate(-22.4 -46)"/>
		</g>
		<polyline points="137.77 148.42 1.6 85.57 85.54 196.43 13.29 280.38 131.75 262.08" stroke="#000" stroke-miterlimit="10"/>
		<g>
		<path d="M314.57,453.42c-88.18,0-159.93-91.27-159.93-203.46S226.39,46.5,314.57,46.5,474.5,137.77,474.5,250,402.76,453.42,314.57,453.42ZM283.76,131.07c-20.49,0-37.15,19.05-37.15,42.48S263.28,216,283.76,216s37.15-19.05,37.15-42.48S304.25,131.07,283.76,131.07Z" transform="translate(-22.4 -46)"/>
		<path d="M314.57,47a129.67,129.67,0,0,1,62,15.91c19,10.21,36,24.83,50.68,43.45C457.39,144.71,474,195.7,474,250s-16.61,105.26-46.77,143.6c-14.65,18.62-31.7,33.24-50.68,43.45a128.66,128.66,0,0,1-123.94,0c-19-10.21-36-24.83-50.68-43.45-30.16-38.35-46.77-89.35-46.77-143.6s16.61-105.26,46.77-143.6c14.65-18.62,31.7-33.24,50.68-43.45a129.67,129.67,0,0,1,62-15.91M283.76,216.52c20.76,0,37.65-19.28,37.65-43s-16.89-43-37.65-43-37.65,19.28-37.65,43,16.89,43,37.65,43M314.57,46C226,46,154.15,137.32,154.15,250s71.83,204,160.43,204S475,362.61,475,250,403.17,46,314.57,46ZM283.76,215.52c-20.24,0-36.65-18.79-36.65-42s16.41-42,36.65-42,36.65,18.79,36.65,42-16.41,42-36.65,42Z" transform="translate(-22.4 -46)"/>
		</g>
	</symbol>
</svg>