<svg id="rabbit" xmlns="http://www.w3.org/2000/svg" viewBox="0 0 451.51 429">
  <title>rabbit</title>
  <g>
    <rect x="115.83" y="28.5" width="47" height="157"/>
    <path d="M191,75V231H145V75h46m1-1H144V232h48V74Z" transform="translate(-28.67 -46)"/>
  </g>
  <g>
    <rect x="279.83" y="28.5" width="47" height="157"/>
    <path d="M355,75V231H309V75h46m1-1H308V232h48V74Z" transform="translate(-28.67 -46)"/>
  </g>
  <g>
    <path d="M168,93.5A23.5,23.5,0,1,1,191.5,70,23.53,23.53,0,0,1,168,93.5Z" transform="translate(-28.67 -46)"/>
    <path d="M168,47a23,23,0,1,1-23,23,23,23,0,0,1,23-23m0-1a24,24,0,1,0,24,24,24,24,0,0,0-24-24Z" transform="translate(-28.67 -46)"/>
  </g>
  <g>
    <path d="M332,93.5A23.5,23.5,0,1,1,355.5,70,23.53,23.53,0,0,1,332,93.5Z" transform="translate(-28.67 -46)"/>
    <path d="M332,47a23,23,0,1,1-23,23,23,23,0,0,1,23-23m0-1a24,24,0,1,0,24,24,24,24,0,0,0-24-24Z" transform="translate(-28.67 -46)"/>
  </g>
  <line x1="76.33" y1="308" x2="2.33" y2="269" fill="none" stroke="#000" stroke-miterlimit="10" stroke-width="10"/>
  <line x1="104.33" y1="370" x2="41.33" y2="411" fill="none" stroke="#000" stroke-miterlimit="10" stroke-width="10"/>
  <line x1="380.33" y1="299" x2="448.33" y2="243" fill="none" stroke="#000" stroke-miterlimit="10" stroke-width="10"/>
  <line x1="327.33" y1="334" x2="419.33" y2="390" fill="none" stroke="#000" stroke-miterlimit="10" stroke-width="10"/>
  <g>
    <path d="M255,474.5c-87.95,0-159.5-63-159.5-140.5S167.05,193.5,255,193.5s159.5,63,159.5,140.5S342.95,474.5,255,474.5Zm53.5-202a25,25,0,1,0,25,25A25,25,0,0,0,308.5,272.5Zm-112,0a25,25,0,1,0,25,25A25,25,0,0,0,196.5,272.5Z" transform="translate(-28.67 -46)"/>
    <path d="M255,194c42.49,0,82.44,14.58,112.48,41S414,296.63,414,334s-16.52,72.51-46.52,99-70,41-112.48,41-82.44-14.58-112.48-41S96,371.37,96,334s16.52-72.51,46.52-99,70-41,112.48-41m53.5,129A25.5,25.5,0,1,0,283,297.5,25.53,25.53,0,0,0,308.5,323m-112,0A25.5,25.5,0,1,0,171,297.5,25.53,25.53,0,0,0,196.5,323M255,193c-88.37,0-160,63.13-160,141s71.63,141,160,141,160-63.13,160-141S343.37,193,255,193Zm53.5,129A24.5,24.5,0,1,1,333,297.5,24.5,24.5,0,0,1,308.5,322Zm-112,0A24.5,24.5,0,1,1,221,297.5,24.5,24.5,0,0,1,196.5,322Z" transform="translate(-28.67 -46)"/>
  </g>
</svg>
