<svg id="tortoise" xmlns="http://www.w3.org/2000/svg" viewBox="0 0 453 240">
  <title>tortoise</title>
  <g>
    <path d="M105.81,373.5c-.21-3.68-.31-7.14-.31-10.56,0-101.15,83-183.44,185-183.44s185,82.29,185,183.44c0,3.38-.11,6.94-.32,10.56Z" transform="translate(-23 -179)"/>
    <path d="M290.5,180A184.71,184.71,0,0,1,421,233.58a181.59,181.59,0,0,1,54,129.35c0,3.27-.09,6.57-.29,10.06H106.29c-.19-3.49-.29-6.79-.29-10.06a181.59,181.59,0,0,1,54-129.35A184.71,184.71,0,0,1,290.5,180m0-1C188.05,179,105,261.35,105,362.94c0,3.72.12,7.4.34,11.06H475.66c.22-3.66.34-7.35.34-11.06C476,261.35,392.95,179,290.5,179Z" transform="translate(-23 -179)"/>
  </g>
  <g>
    <path d="M295.42,394h-4.77c-40.45-.19-78.46-2.73-107-7.16-27.91-4.33-43.91-10.09-43.88-15.81a3,3,0,0,1,.14-.87l301.78,1.4a3,3,0,0,1,.13.87C441.72,384.27,376.06,394,295.42,394Z" transform="translate(-23 -179)"/>
    <path d="M140.26,370.6l301,1.4a2.29,2.29,0,0,1,0,.37c0,2-3.07,8.84-42,14.68-27.53,4.13-64.4,6.4-103.82,6.4h-4.76c-40.43-.19-78.41-2.73-107-7.16C143.33,380,140.22,373,140.23,371a2.29,2.29,0,0,1,0-.37m-.75-1a3.72,3.72,0,0,0-.29,1.37c-.06,12.58,67.73,23.09,151.42,23.48h4.77c81.48,0,146.8-9.74,146.86-22.08A3.72,3.72,0,0,0,442,371l-302.49-1.41Z" transform="translate(-23 -179)"/>
  </g>
  <g>
    <rect x="93.5" y="182.5" width="44" height="57" rx="11.5" ry="11.5"/>
    <path d="M149,362a11,11,0,0,1,11,11v34a11,11,0,0,1-11,11H128a11,11,0,0,1-11-11V373a11,11,0,0,1,11-11h21m0-1H128a12,12,0,0,0-12,12v34a12,12,0,0,0,12,12h21a12,12,0,0,0,12-12V373a12,12,0,0,0-12-12Z" transform="translate(-23 -179)"/>
  </g>
  <g>
    <rect x="390.5" y="182.5" width="45" height="57" rx="11.5" ry="11.5"/>
    <path d="M447,362a11,11,0,0,1,11,11v34a11,11,0,0,1-11,11H425a11,11,0,0,1-11-11V373a11,11,0,0,1,11-11h22m0-1H425a12,12,0,0,0-12,12v34a12,12,0,0,0,12,12h22a12,12,0,0,0,12-12V373a12,12,0,0,0-12-12Z" transform="translate(-23 -179)"/>
  </g>
  <g>
    <path d="M81,392.5c-31.71,0-57.5-13.91-57.5-31s25.79-31,57.5-31,57.5,13.91,57.5,31S112.71,392.5,81,392.5Zm-21-45A11.5,11.5,0,1,0,71.5,359,11.51,11.51,0,0,0,60,347.5Z" transform="translate(-23 -179)"/>
    <path d="M81,331c31.43,0,57,13.68,57,30.5S112.43,392,81,392s-57-13.68-57-30.5S49.57,331,81,331M60,371a12,12,0,1,0-12-12,12,12,0,0,0,12,12m21-41c-32,0-58,14.1-58,31.5S49,393,81,393s58-14.1,58-31.5S113,330,81,330ZM60,370a11,11,0,1,1,11-11,11,11,0,0,1-11,11Z" transform="translate(-23 -179)"/>
  </g>
</svg>
